<svg width="200" height="100" viewBox="0 0 200 100" fill="none" xmlns="http://www.w3.org/2000/svg">
<path d="M111.665 13.4014H113.879V58.1191H111.692V71.4785H108.094V58.1455H105.894C105.88 43.2261 105.88 28.347 105.88 13.4141H108.053V0.597656H111.665V13.4014ZM93.957 23.1797H96.1836V36.0518H93.9844V49.3301H90.3984V36.0654H88.1855V23.207H90.3721V11.9092H93.957V23.1797Z" fill="white"/>
<path d="M2.31641 80.8486C3.525 80.8486 4.72002 80.8352 5.91504 80.8623C6.06442 80.8623 6.24097 81.0931 6.34961 81.2559C8.57677 84.823 10.8041 88.39 13.0312 91.9707C13.1399 92.1334 13.2347 92.2963 13.4111 92.5674V80.876H17.0098C16.9962 86.6674 16.9961 92.459 16.9961 98.3047C15.7876 98.3047 14.606 98.3181 13.4111 98.291C13.2482 98.2908 13.0451 98.0737 12.9365 97.8975C10.7502 94.3983 8.56337 90.8994 6.39062 87.3867C6.25482 87.1697 6.11865 86.9523 5.90137 86.5996V98.2773H2.31641V80.8486ZM36.2129 80.8623C36.2129 81.866 36.2264 82.8429 36.1992 83.833C36.1991 84.0093 35.9816 84.1859 35.8594 84.3486C32.9804 87.7936 30.0879 91.2385 27.209 94.6699C27.114 94.7784 27.0321 94.9001 26.8828 95.0898H36.4434V98.2773H21.7363C21.7363 97.3145 21.7228 96.3379 21.75 95.375C21.7501 95.2394 21.8855 95.0898 21.9941 94.9678C24.9002 91.4821 27.8205 88.0101 30.7266 84.5244C30.8215 84.4025 30.9164 84.2803 31.0791 84.0771H22.4961V80.8623H36.2129Z" fill="white"/>
<path d="M130.392 81.3369C131.967 80.496 133.679 80.2793 135.417 80.5234C136.422 80.6591 137.44 80.9166 138.35 81.3369C140.169 82.1778 141.08 83.7105 141.216 85.7041C141.229 85.9618 141.161 86.0976 140.876 86.0977C139.844 86.0841 138.825 86.0975 137.793 86.084C137.671 86.0838 137.468 85.9083 137.454 85.7998C137.291 84.1993 136.068 83.5339 134.724 83.4932C134.031 83.4661 133.312 83.5076 132.66 83.7109C131.655 84.0093 131.166 84.9587 131.479 85.8945C131.587 86.22 131.9 86.5996 132.212 86.7217C133.298 87.1285 134.426 87.4538 135.553 87.7793C136.422 88.0369 137.331 88.1863 138.187 88.498C140.02 89.1762 141.446 90.2892 141.731 92.3779C142.125 95.1718 140.59 97.2878 138.228 98.1016C135.403 99.078 132.578 99.0508 129.903 97.6133C127.975 96.5553 127.078 94.8324 127.078 92.5674H130.759C130.8 92.7707 130.84 92.947 130.867 93.1367C131.017 94.2081 131.614 94.9406 132.578 95.334C133.936 95.8901 135.336 95.8905 136.721 95.3887C137.657 95.036 138.078 94.3849 138.051 93.4492C138.037 92.9881 137.847 92.608 137.48 92.3096C136.693 91.6723 135.743 91.4684 134.806 91.1836C133.393 90.7631 131.94 90.4245 130.568 89.8955C129.129 89.3394 128.056 88.322 127.771 86.708C127.35 84.416 128.328 82.4355 130.392 81.3369ZM58.2539 80.4551C62.7352 80.4552 66.0356 83.3308 66.6875 87.793C67.0677 90.3157 66.7819 92.7305 65.4238 94.9277C64.093 97.0841 62.1236 98.2771 59.625 98.6162C58.0362 98.8332 56.4741 98.7248 54.9668 98.1416C52.7264 97.2871 51.1779 95.7142 50.3359 93.4766C49.3446 90.8589 49.3856 88.2272 50.377 85.623C51.6399 82.3543 54.5737 80.4551 58.2539 80.4551ZM185.623 81.7031C187.348 80.5098 189.303 80.2927 191.312 80.4961C192.779 80.6453 194.165 81.0527 195.306 82.0293C196.514 83.0736 197.058 84.4029 197.044 86.0439C195.822 86.0575 194.613 86.0566 193.377 86.0566C193.35 85.9755 193.323 85.8808 193.296 85.7861C192.97 84.3213 192.413 83.7376 190.946 83.5342C190.24 83.4392 189.48 83.4941 188.773 83.6162C188.108 83.7247 187.592 84.1587 187.348 84.8232C187.022 85.7319 187.375 86.5592 188.353 86.8711C189.751 87.3322 191.19 87.6984 192.616 88.0781C193.689 88.3629 194.735 88.6751 195.672 89.3125C198.646 91.347 198.049 95.7547 195.4 97.4365C194.205 98.196 192.888 98.576 191.489 98.6709C189.819 98.8065 188.162 98.6842 186.601 98.0332C184.292 97.0702 183.042 95.348 182.92 92.8389C182.92 92.7846 182.92 92.7437 182.934 92.6895C182.934 92.6623 182.961 92.6352 182.988 92.5674H186.642C186.669 92.8115 186.682 93.0556 186.736 93.2861C186.94 94.1812 187.429 94.873 188.271 95.2393C189.791 95.9039 191.34 95.9445 192.848 95.2393C193.771 94.8052 194.205 93.7882 193.784 92.9609C193.567 92.5269 193.133 92.1195 192.698 91.916C191.924 91.5498 191.082 91.3465 190.254 91.0889C189.14 90.7498 187.999 90.4648 186.886 90.0986C185.894 89.7731 185.025 89.2305 184.373 88.3896C182.785 86.328 183.355 83.2628 185.623 81.7031ZM76.3838 36.0762H78.5967V65.7529C77.9992 65.7529 77.4561 65.7799 76.8994 65.7393C76.492 65.7121 76.3701 65.848 76.3701 66.2549C76.3837 68.2486 76.3838 70.2562 76.3838 72.25V93.8018C76.4108 93.8151 76.4378 93.8156 76.4648 93.8291C76.8315 93.0154 77.1978 92.1877 77.5645 91.374C79.0583 87.9832 80.5522 84.5921 82.0596 81.2148C82.1275 81.0657 82.3182 80.8759 82.4404 80.8623C83.6625 80.8352 84.8713 80.8486 86.1885 80.8486C85.9034 81.486 85.6585 82.0691 85.4141 82.6387C83.1462 87.7113 80.8647 92.7712 78.6104 97.8574C78.461 98.1963 78.2843 98.332 77.8906 98.332C76.3968 98.3049 74.8893 98.3184 73.3955 98.3184H72.8115V66.418C72.8115 65.7535 72.8117 65.7529 72.1602 65.7529H70.6113V36.0898H72.7979V23.2188H76.3838V36.0762ZM108.623 80.8486C111.624 80.8758 114.612 80.8353 117.613 80.876C119.297 80.8896 120.723 81.5134 121.741 82.8965C122.963 84.5511 122.909 87.3045 121.578 88.8643C121.144 89.3661 120.505 89.7054 119.976 90.1123C121.836 90.7362 122.217 92.3509 122.394 94.1006C122.489 95.1175 122.557 96.1344 122.692 97.1514C122.733 97.5311 122.909 97.8843 123.045 98.3047C121.85 98.3047 120.669 98.3181 119.487 98.291C119.379 98.291 119.202 98.0878 119.175 97.9521C119.025 96.9893 118.903 96.0263 118.781 95.0635C118.713 94.5481 118.672 94.0321 118.55 93.5303C118.251 92.2012 117.531 91.564 116.119 91.5098C114.761 91.4555 113.39 91.4961 111.95 91.4961V98.2773H108.08C108.067 98.1011 108.053 97.9381 108.053 97.7754C108.053 92.3367 108.053 86.884 108.039 81.4453C108.039 80.9844 108.148 80.8351 108.623 80.8486ZM170.073 80.835C171.119 80.8621 172.152 80.8352 173.197 80.8623C173.347 80.8626 173.591 81.0121 173.646 81.1611C175.764 86.7626 177.855 92.378 179.96 97.9795C179.987 98.0743 180.014 98.1557 180.055 98.3047C178.765 98.3047 177.515 98.3181 176.266 98.291C176.157 98.2905 176.008 98.0875 175.954 97.9385C175.587 96.8942 175.22 95.8499 174.895 94.8057C174.8 94.5074 174.664 94.3986 174.352 94.4121C172.464 94.4257 170.576 94.4257 168.688 94.4121C168.363 94.4121 168.199 94.4938 168.091 94.8193C167.751 95.8636 167.37 96.9078 166.99 97.9385C166.936 98.074 166.787 98.2906 166.679 98.291C165.47 98.3181 164.275 98.3047 162.998 98.3047C163.27 97.5587 163.528 96.8803 163.786 96.2021C165.66 91.2381 167.548 86.2736 169.422 81.3096C169.544 80.9709 169.693 80.8215 170.073 80.835ZM102.797 84.0498H93.6709V87.793H102.036V90.8047H93.6572V95.0635H102.987V98.2773H89.7871V80.876H102.797V84.0498ZM159.576 84.0635H150.396V87.7793C150.586 87.7929 150.776 87.8066 150.966 87.8066C153.41 87.8066 155.855 87.8201 158.3 87.793C158.72 87.793 158.884 87.8885 158.856 88.3359C158.816 89.1361 158.843 89.923 158.843 90.791H150.382V95.0762H159.766V98.2773H146.566V80.8896H159.576V84.0635ZM58.9189 83.7109C57.0857 83.4126 55.3066 84.1586 54.4375 85.7861C53.1747 88.1732 53.1337 90.6554 54.2744 93.0967C55.1164 94.9141 56.692 95.5918 58.6475 95.4697C60.4264 95.3612 61.6484 94.4256 62.3682 92.8252C62.8163 91.8487 62.9934 90.7909 63.0342 89.6924C62.9391 88.9871 62.8849 88.2679 62.7627 87.5762C62.3417 85.3925 60.9967 84.05 58.9189 83.7109ZM171.473 85.2705C170.739 87.3455 170.006 89.4069 169.245 91.5361H173.74C173.007 89.4069 172.301 87.3319 171.581 85.2568C171.541 85.2568 171.5 85.2704 171.473 85.2705ZM112.018 83.873C111.991 83.8734 111.964 83.9144 111.95 83.9414V88.7158C113.566 88.7158 115.155 88.797 116.744 88.6885C118.02 88.607 118.537 87.9962 118.74 86.8027C119.012 85.2025 118.264 83.9818 116.798 83.9004C115.209 83.8055 113.62 83.873 112.018 83.873Z" fill="white"/>
</svg>
