<svg width="140" height="70" viewBox="0 0 140 70" fill="none" xmlns="http://www.w3.org/2000/svg">
<path d="M78.167 9.38086H79.7158V40.6836H78.1855V50.0352H75.667V40.7021H74.127C74.1174 30.2586 74.1172 19.8436 74.1172 9.39062H75.6377V0.417969H78.167V9.38086ZM65.7705 16.2266H67.3301V25.2363H65.79V34.5312H63.2803V25.2461H61.7305V16.2451H63.2607V8.33691H65.7705V16.2266Z" fill="#298DCD"/>
<path d="M4.14062 56.6035C4.24502 56.6039 4.36836 56.7651 4.44434 56.8789C6.00333 59.3759 7.5621 61.8734 9.12109 64.3799C9.19714 64.4938 9.26412 64.608 9.3877 64.7979V56.6133H11.9072C11.8977 60.6673 11.8975 64.7215 11.8975 68.8135C11.0514 68.8135 10.2242 68.8227 9.3877 68.8037C9.27362 68.8037 9.13074 68.6517 9.05469 68.5283C7.52428 66.0789 5.99356 63.6298 4.47266 61.1709C4.37761 61.019 4.28292 60.8669 4.13086 60.6201V68.7949H1.62109V56.5947C2.46714 56.5947 3.30408 56.5845 4.14062 56.6035ZM25.3486 56.6035C25.3486 57.3061 25.3579 57.9905 25.3389 58.6836C25.3386 58.8068 25.187 58.9302 25.1016 59.0439C23.0863 61.4555 21.0612 63.8675 19.0459 66.2695C18.9794 66.3454 18.9218 66.4307 18.8174 66.5635H25.5098V68.7949H15.2148C15.2148 68.1208 15.2056 67.4368 15.2246 66.7627C15.2247 66.6678 15.3195 66.563 15.3955 66.4775C17.4298 64.0376 19.4736 61.6069 21.5078 59.167C21.5743 59.0817 21.6411 58.9966 21.7549 58.8545H15.7471V56.6035H25.3486Z" fill="#298DCD"/>
<path d="M91.2754 56.9365C92.3781 56.3479 93.5762 56.1963 94.793 56.3672C95.4964 56.4621 96.2098 56.6422 96.8467 56.9365C98.1203 57.5252 98.7575 58.5986 98.8525 59.9941C98.862 60.1743 98.8138 60.2695 98.6143 60.2695C97.8918 60.26 97.1785 60.2693 96.4561 60.2598C96.3706 60.2593 96.2285 60.1364 96.2188 60.0605C96.1047 58.9402 95.2487 58.4748 94.3076 58.4463C93.823 58.4273 93.3194 58.4554 92.8633 58.5977C92.1598 58.8065 91.8175 59.4718 92.0361 60.127C92.1122 60.3548 92.3312 60.6206 92.5498 60.7061C93.3101 60.9908 94.0989 61.2185 94.8877 61.4463C95.4961 61.6267 96.1335 61.7309 96.7324 61.9492C98.0157 62.4239 99.0133 63.203 99.2129 64.665C99.4886 66.6208 98.4148 68.1022 96.7607 68.6719C94.7836 69.3554 92.8062 69.3363 90.9336 68.3301C89.5837 67.5895 88.9561 66.3834 88.9561 64.7979H91.5322C91.5607 64.9401 91.5894 65.0635 91.6084 65.1963C91.7129 65.9461 92.131 66.459 92.8057 66.7344C93.7562 67.1236 94.7355 67.1236 95.7051 66.7725C96.361 66.5256 96.6557 66.0701 96.6367 65.415C96.6272 65.0923 96.4949 64.826 96.2383 64.6172C95.6869 64.171 95.0212 64.0285 94.3652 63.8291C93.3767 63.5348 92.3595 63.298 91.3994 62.9277C90.3918 62.5385 89.641 61.8261 89.4414 60.6963C89.1467 59.0918 89.8305 57.7056 91.2754 56.9365ZM129.938 57.1934C131.145 56.358 132.513 56.2053 133.92 56.3477C134.947 56.4521 135.916 56.7374 136.715 57.4209C137.561 58.152 137.941 59.0826 137.932 60.2314C137.076 60.2409 136.23 60.2402 135.365 60.2402C135.346 60.1834 135.328 60.1171 135.309 60.0508C135.08 59.0255 134.69 58.6171 133.664 58.4746C133.17 58.4081 132.637 58.4458 132.143 58.5312C131.677 58.6072 131.316 58.9117 131.145 59.377C130.917 60.0129 131.163 60.5922 131.848 60.8105C132.827 61.1334 133.835 61.3894 134.833 61.6553C135.584 61.8546 136.316 62.0733 136.972 62.5195C139.053 63.9437 138.635 67.0288 136.781 68.2061C135.945 68.7376 135.023 69.0039 134.044 69.0703C132.875 69.1652 131.715 69.0796 130.622 68.624C129.006 67.9499 128.131 66.7437 128.046 64.9873C128.046 64.9497 128.045 64.9214 128.055 64.8838C128.055 64.8648 128.074 64.8453 128.093 64.7979H130.65C130.669 64.9686 130.679 65.1395 130.717 65.3008C130.859 65.9274 131.202 66.4116 131.791 66.668C132.856 67.1332 133.939 67.1616 134.994 66.668C135.641 66.3642 135.945 65.6524 135.65 65.0732C135.498 64.7694 135.194 64.4842 134.89 64.3418C134.348 64.0856 133.758 63.943 133.179 63.7627C132.399 63.5254 131.601 63.3266 130.821 63.0703C130.127 62.8425 129.519 62.4626 129.062 61.874C127.95 60.4309 128.35 58.2852 129.938 57.1934ZM40.7793 56.3193C43.9161 56.3195 46.2263 58.3326 46.6826 61.4561C46.9487 63.2219 46.7484 64.9122 45.7979 66.4502C44.8663 67.9595 43.4881 68.7948 41.7393 69.0322C40.6271 69.1841 39.5336 69.1084 38.4785 68.7002C36.91 68.1021 35.8257 67.0001 35.2363 65.4336C34.5426 63.6014 34.5717 61.7592 35.2656 59.9365C36.1498 57.6487 38.2033 56.3193 40.7793 56.3193ZM53.4697 25.2539H55.0195V46.0273C54.6013 46.0273 54.2207 46.047 53.8311 46.0186C53.5459 45.9996 53.46 46.0942 53.46 46.3789C53.4695 47.7745 53.4697 49.1796 53.4697 50.5752V65.6621C53.4886 65.6715 53.5075 65.6713 53.5264 65.6807C53.783 65.111 54.0402 64.5315 54.2969 63.9619C55.3424 61.5886 56.3883 59.2154 57.4434 56.8516C57.4908 56.7473 57.6234 56.6143 57.709 56.6045C58.5645 56.5855 59.4109 56.5947 60.333 56.5947C60.1334 57.0408 59.9621 57.449 59.791 57.8477C58.2035 61.3985 56.6063 64.9406 55.0283 68.501C54.9238 68.7381 54.7999 68.833 54.5244 68.833C53.4789 68.814 52.4235 68.8232 51.3779 68.8232H50.9697V46.4932C50.9697 46.0279 50.969 46.0273 50.5127 46.0273H49.4297V25.2637H50.96V16.2539H53.4697V25.2539ZM76.0371 56.5947C78.1379 56.6137 80.2293 56.5858 82.3301 56.6143C83.5088 56.6238 84.5077 57.0599 85.2207 58.0283C86.0762 59.1866 86.0379 61.1142 85.1064 62.2061C84.8023 62.5573 84.3551 62.7943 83.9844 63.0791C85.2867 63.5158 85.5532 64.6463 85.6768 65.8711C85.7433 66.583 85.7907 67.2949 85.8857 68.0068C85.9143 68.2727 86.0378 68.5201 86.1328 68.8145C85.2964 68.8145 84.4695 68.8237 83.6426 68.8047C83.5666 68.8047 83.443 68.6623 83.4238 68.5674C83.3193 67.8933 83.233 67.219 83.1475 66.5449C83.0999 66.1841 83.0719 65.823 82.9863 65.4717C82.7772 64.5416 82.2734 64.0957 81.2852 64.0576C80.3345 64.0196 79.3739 64.0479 78.3662 64.0479V68.7949H75.6572C75.6477 68.6715 75.6377 68.5573 75.6377 68.4434C75.6377 64.6363 75.6384 60.8198 75.6289 57.0127C75.6289 56.6899 75.7045 56.5853 76.0371 56.5947ZM119.053 56.585C119.785 56.6039 120.507 56.5855 121.239 56.6045C121.344 56.6046 121.515 56.7091 121.553 56.8135C123.036 60.7345 124.5 64.6649 125.974 68.5859C125.993 68.6523 126.012 68.7093 126.04 68.8135C125.137 68.8135 124.262 68.8237 123.388 68.8047C123.312 68.8047 123.207 68.662 123.169 68.5576C122.912 67.8266 122.656 67.0953 122.428 66.3643C122.361 66.1554 122.266 66.0794 122.047 66.0889C120.726 66.0984 119.404 66.0984 118.083 66.0889C117.855 66.0889 117.741 66.1462 117.665 66.374C117.427 67.1051 117.161 67.8361 116.895 68.5576C116.856 68.6526 116.752 68.8047 116.676 68.8047C115.83 68.8237 114.993 68.8135 114.1 68.8135C114.29 68.2915 114.471 67.8173 114.651 67.3428C115.963 63.8679 117.285 60.3928 118.597 56.918C118.682 56.6806 118.787 56.5755 119.053 56.585ZM71.959 58.8359H65.5713V61.4561H71.4268V63.5635H65.5615V66.5449H72.0918V68.7949H62.8525V56.6143H71.959V58.8359ZM111.704 58.8447H105.278V61.4463C105.411 61.4558 105.545 61.4658 105.678 61.4658C107.389 61.4658 109.1 61.475 110.811 61.4561C111.105 61.4561 111.219 61.5226 111.2 61.8359C111.172 62.3959 111.191 62.9463 111.191 63.5537H105.269V66.5547H111.838V68.7949H102.598V56.623H111.704V58.8447ZM41.2451 58.5986C39.9618 58.3898 38.7158 58.9115 38.1074 60.0508C37.2234 61.7216 37.1948 63.4591 37.9932 65.168C38.5825 66.4402 39.6858 66.9155 41.0547 66.8301C42.2999 66.7541 43.1554 66.0987 43.6592 64.9785C43.9729 64.2949 44.0965 63.5542 44.125 62.7852C44.0585 62.2915 44.0201 61.7879 43.9346 61.3037C43.6398 59.7755 42.6992 58.8361 41.2451 58.5986ZM120.032 59.6904C119.519 61.1429 119.005 62.5857 118.473 64.0762H121.619C121.106 62.5857 120.611 61.1332 120.107 59.6807C120.079 59.6808 120.051 59.6903 120.032 59.6904ZM78.4141 58.7119C78.3951 58.7119 78.3757 58.7408 78.3662 58.7598V62.1016C79.4973 62.1016 80.6096 62.1589 81.7217 62.083C82.6153 62.026 82.9765 61.5982 83.1191 60.7627C83.3092 59.6424 82.7864 58.7884 81.7598 58.7314C80.6477 58.665 79.5356 58.7119 78.4141 58.7119Z" fill="#C8A86A"/>
</svg>
